<svg width="44" height="16" viewBox="0 0 44 16" fill="none" xmlns="http://www.w3.org/2000/svg">
<path d="M7.88004 15.2399C3.20004 15.2399 3.86983e-05 11.9599 3.86983e-05 7.63994C3.86983e-05 3.31994 3.20004 -5.93662e-05 7.88004 -5.93662e-05C12.56 -5.93662e-05 15.76 3.31994 15.76 7.63994C15.76 11.9599 12.56 15.2399 7.88004 15.2399ZM7.88004 14.7599C10.3 14.7599 11.2 11.7999 11.2 7.63994C11.2 3.47994 10.34 0.47994 7.88004 0.47994C5.42004 0.47994 4.56004 3.49994 4.56004 7.63994C4.56004 11.7799 5.46004 14.7599 7.88004 14.7599ZM24.115 14.9399H16.675V14.8999C17.235 13.3799 17.495 12.5199 17.495 10.3999V4.83994C17.495 2.71994 17.235 1.85994 16.675 0.339941V0.29994H23.775C27.495 0.29994 28.895 1.61994 28.895 3.63994C28.895 5.07994 28.255 6.69994 25.655 7.31994C28.355 7.85994 29.515 9.21994 29.515 11.1399C29.515 13.4999 27.915 14.9399 24.115 14.9399ZM21.735 7.07994H22.335C24.215 7.05994 24.855 5.49994 24.855 3.97994C24.855 2.39994 24.455 0.75994 22.455 0.75994C22.235 0.75994 21.995 0.779941 21.735 0.799941V7.07994ZM22.495 14.5399C24.415 14.5399 25.155 12.9799 25.155 10.9599C25.155 9.09994 24.575 7.57994 22.355 7.57994H21.735V14.4999C21.995 14.5399 22.255 14.5399 22.495 14.5399ZM43.1543 9.99994L42.0543 14.9399H30.4743V14.8999C31.0343 13.3799 31.2943 12.5199 31.2943 10.3999V4.83994C31.2943 2.71994 31.0343 1.85994 30.4743 0.339941V0.29994H41.4343L42.1743 4.31994L41.9343 4.37994C40.8143 3.31994 38.8943 1.03994 37.6743 0.919941L35.5343 0.719941V7.11994H36.4343C37.5543 7.11994 38.6343 5.91994 39.4943 5.17994H39.7343V9.71994H39.4943C38.6343 8.97994 37.5743 7.61994 36.4143 7.61994H35.5343V14.5199L38.0743 14.3599C39.3943 14.2799 41.8743 11.3799 42.9143 9.93994L43.1543 9.99994Z" fill="#291B16"/>
</svg>
