<svg width="44" height="16" viewBox="0 0 44 16" fill="none" xmlns="http://www.w3.org/2000/svg">
<path d="M43.1544 9.99981L42.0544 14.9398H30.4744V14.8998C31.0344 13.3798 31.2944 12.5198 31.2944 10.3998V4.83981C31.2944 2.71981 31.0344 1.85981 30.4744 0.339806V0.299805H41.4344L42.1744 4.31981L41.9344 4.37981C40.8144 3.31981 38.8944 1.03981 37.6744 0.919806L35.5344 0.719806V7.11981H36.4344C37.5544 7.11981 38.6344 5.91981 39.4944 5.17981H39.7344V9.71981H39.4944C38.6344 8.97981 37.5744 7.61981 36.4144 7.61981H35.5344V14.5198L38.0744 14.3598C39.3944 14.2798 41.8744 11.3798 42.9144 9.93981L43.1544 9.99981Z" fill="#F6EFED"/>
<path d="M24.115 14.9398H16.675V14.8998C17.235 13.3798 17.495 12.5198 17.495 10.3998V4.83981C17.495 2.71981 17.235 1.85981 16.675 0.339806V0.299805H23.775C27.4951 0.299805 28.8951 1.61981 28.8951 3.63981C28.8951 5.07981 28.255 6.69981 25.655 7.31981C28.355 7.85981 29.515 9.2198 29.515 11.1398C29.515 13.4998 27.915 14.9398 24.115 14.9398ZM21.735 7.07981H22.335C24.215 7.05981 24.855 5.49981 24.855 3.9798C24.855 2.39981 24.455 0.759805 22.455 0.759805C22.235 0.759805 21.995 0.779806 21.735 0.799806V7.07981ZM22.495 14.5398C24.415 14.5398 25.155 12.9798 25.155 10.9598C25.155 9.09981 24.575 7.57981 22.355 7.57981H21.735V14.4998C21.995 14.5398 22.255 14.5398 22.495 14.5398Z" fill="#F6EFED"/>
<path d="M7.88 15.24C3.2 15.24 0 11.96 0 7.64C0 3.32 3.2 0 7.88 0C12.56 0 15.76 3.32 15.76 7.64C15.76 11.96 12.56 15.24 7.88 15.24ZM7.88 14.76C10.3 14.76 11.2 11.8 11.2 7.64C11.2 3.48 10.34 0.48 7.88 0.48C5.42 0.48 4.56 3.5 4.56 7.64C4.56 11.78 5.46 14.76 7.88 14.76Z" fill="#F6EFED"/>
</svg>
