<?xml version="1.0" encoding="UTF-8"?>
<svg version="1.1" xmlns="http://www.w3.org/2000/svg" width="512" height="512">
<path d="M0 0 C1.18117596 -0.00384115 2.36235192 -0.00768229 3.57932109 -0.01163983 C5.51995377 -0.01034011 5.51995377 -0.01034011 7.49979115 -0.00901413 C8.89116285 -0.01159877 10.28253382 -0.01461221 11.67390376 -0.01801753 C15.49703656 -0.02607918 19.32015058 -0.02787664 23.14329088 -0.028615 C27.26681895 -0.03046701 31.3903373 -0.0380151 35.51385975 -0.04475021 C44.53047513 -0.05832817 53.54708607 -0.06435743 62.56370997 -0.06876087 C68.19465495 -0.07152423 73.8255982 -0.07576175 79.45654202 -0.08026505 C95.04960713 -0.09245705 110.64267088 -0.10275648 126.23574066 -0.10614014 C127.23360204 -0.1063597 128.23146342 -0.10657927 129.25956302 -0.10680549 C130.25980034 -0.10702377 131.26003767 -0.10724204 132.29058522 -0.10746694 C134.3174179 -0.1079104 136.34425058 -0.10835696 138.37108326 -0.10880661 C139.37646044 -0.10902804 140.38183762 -0.10924947 141.41768078 -0.10947761 C157.7062746 -0.11342514 173.99482367 -0.13087809 190.2834002 -0.15416613 C207.01005212 -0.17788729 223.73668159 -0.19034234 240.46335059 -0.19150805 C249.85336737 -0.19242439 259.24332583 -0.19816624 268.63332653 -0.21632767 C276.62956057 -0.23173897 284.62571829 -0.23684304 292.62196436 -0.22858956 C296.70015711 -0.2246867 300.77819619 -0.22559484 304.85636997 -0.23964691 C308.59402091 -0.25240763 312.33140306 -0.25116944 316.06905375 -0.2390562 C318.0527157 -0.23618174 320.0363824 -0.24801852 322.02000731 -0.26047826 C334.5143871 -0.19153252 344.13676228 2.53188018 353.33324146 11.20564651 C360.38003812 18.66925924 364.25038115 26.63300394 364.26824379 36.93403339 C364.27270163 38.12653519 364.27715948 39.31903698 364.28175241 40.54767519 C364.28147586 42.51499964 364.28147586 42.51499964 364.28119373 44.52206802 C364.28449349 45.92836338 364.2882193 47.33465779 364.29233521 48.740951 C364.30235071 52.61001654 364.30607129 56.47906656 364.30872452 60.34814322 C364.31262894 64.51942645 364.32220723 68.69069741 364.33093739 72.86197281 C364.35069851 82.93830804 364.36076783 93.01464427 364.36966518 103.09099403 C364.37404889 107.8369498 364.37941551 112.58290445 364.38465405 117.32885933 C364.40166642 133.10717315 364.41616018 148.88548628 364.42340279 164.66380787 C364.42531266 168.75823912 364.427233 172.85267036 364.42918873 176.94710159 C364.42967247 177.96474442 364.43015621 178.98238726 364.43065461 180.03086775 C364.43895339 196.51285946 364.4642877 212.99477857 364.49676941 229.47673858 C364.52985085 246.40111551 364.54785255 263.32545556 364.55104703 280.249865 C364.55321118 289.75117332 364.56194591 299.25237577 364.5875082 308.75365257 C364.60923007 316.8461483 364.61725832 324.93851243 364.60754142 333.031034 C364.60300094 337.15799547 364.60486806 341.28468552 364.62430286 345.41160965 C364.64196579 349.19506144 364.64091184 352.97804444 364.62540557 356.76150142 C364.62191696 358.76734769 364.63803244 360.77319905 364.65501004 362.7789765 C364.56486792 375.49794657 361.06243709 384.84464713 352.32152271 394.03767776 C344.75477372 401.23829374 335.62854504 404.25016881 325.2836628 404.26285553 C324.10597023 404.26669667 322.92827767 404.27053782 321.71489745 404.27449536 C320.42503328 404.27362888 319.13516911 404.2727624 317.80621815 404.27186966 C316.41897124 404.27445431 315.03172507 404.27746775 313.64447993 404.28087306 C309.83274869 404.28893457 306.02103629 404.29073216 302.20929754 404.29147053 C298.09803951 404.29332256 293.98679122 404.30087066 289.87553883 404.30760574 C280.88578209 404.3211836 271.89602982 404.32721295 262.90626454 404.3316164 C257.29207054 404.33437977 251.67787826 404.3386173 246.06368542 404.34312057 C230.51694344 404.35531257 214.97020284 404.36561199 199.42345619 404.36899567 C198.42856243 404.36921523 197.43366866 404.3694348 196.4086266 404.36966102 C194.91273303 404.36998843 194.91273303 404.36998843 193.38661939 404.37032247 C191.36581568 404.37076593 189.34501197 404.37121249 187.32420826 404.37166214 C186.32182169 404.37188357 185.31943513 404.372105 184.28667321 404.37233314 C168.04657828 404.37628066 151.80652823 404.39373358 135.56645063 404.41702166 C118.88951926 404.44074298 102.2126104 404.45319787 85.53566188 404.45436358 C76.17359071 404.45527991 66.81157802 404.46102155 57.44952297 404.4791832 C49.47707744 404.4945947 41.50470846 404.49969845 33.53225086 404.49144509 C29.46620953 404.4875423 25.40032233 404.48845001 21.33430004 404.50250244 C17.60775137 404.5152636 13.88147229 404.51402459 10.15492388 404.50191173 C8.17722678 404.49903741 6.19952493 404.51087371 4.221865 404.52333379 C-8.09552354 404.45516587 -18.43488474 401.59387595 -27.87378979 393.38533401 C-35.75233329 385.18278115 -38.98354786 374.39217093 -38.99740505 363.21045876 C-39.0012462 362.04245873 -39.00508734 360.8744587 -39.00904489 359.67106473 C-39.0081784 358.39715049 -39.00731192 357.12323624 -39.00641918 355.81071854 C-39.00900469 354.43640835 -39.01201836 353.06209891 -39.01542258 351.68779051 C-39.02347412 347.91638453 -39.02528112 344.14499759 -39.02602005 340.37358403 C-39.02787383 336.30388713 -39.03542282 332.23420003 -39.04215527 328.16450882 C-39.05572616 319.26764927 -39.06176142 310.37079424 -39.06616592 301.47392607 C-39.06893055 295.91616184 -39.07316831 290.35839935 -39.0776701 284.80063629 C-39.08986132 269.4056948 -39.10016081 254.0107547 -39.10354519 238.61580849 C-39.10376475 237.6308558 -39.10398432 236.64590311 -39.10421054 235.63110337 C-39.10442882 234.64382486 -39.1046471 233.65654634 -39.10487199 232.6393503 C-39.10531545 230.63882534 -39.10576201 228.63830038 -39.10621166 226.63777542 C-39.10643309 225.64545082 -39.10665452 224.65312622 -39.10688266 223.63073118 C-39.11082941 207.55694715 -39.12828034 191.4832085 -39.15157118 175.40944199 C-39.17530341 158.89745109 -39.1877479 142.38548294 -39.18891311 125.87347472 C-39.18982883 116.6063697 -39.19555533 107.33932381 -39.21373272 98.07223511 C-39.22915899 90.18001996 -39.23423929 82.2878822 -39.22599462 74.39565484 C-39.222097 70.37188873 -39.22297406 66.34827834 -39.23705196 62.32453156 C-39.24984441 58.63430906 -39.24854695 54.94435845 -39.23646125 51.25413604 C-39.23359722 49.30083015 -39.24539942 47.34751932 -39.25788331 45.39425123 C-39.18619471 32.51777742 -36.84682347 20.96957085 -28.08472729 11.13142776 C-20.30621133 3.73546178 -10.65127327 0.01302355 0 0 Z " fill="#FFFFFF" transform="translate(93.86597728729248,52.86857223510742)"/>
<path d="M0 0 C22.44 0 44.88 0 68 0 C72.95 7.425 72.95 7.425 78 15 C80.43114097 18.58799428 82.86604668 22.17253667 85.3125 25.75 C85.94929688 26.68263672 86.58609375 27.61527344 87.2421875 28.57617188 C91.32436298 34.55335327 95.41205195 40.52676567 99.5 46.5 C104.23219637 53.41459809 108.96277853 60.33029153 113.6875 67.25 C114.26886719 68.10013672 114.85023438 68.95027344 115.44921875 69.82617188 C120.6940171 77.51190874 125.83753549 85.25630323 131 93 C131.33 62.31 131.66 31.62 132 0 C154.44 0 176.88 0 200 0 C200 60.72 200 121.44 200 184 C177.56 184 155.12 184 132 184 C125.565 174.595 125.565 174.595 119 165 C114.16954378 158.29031697 114.16954378 158.29031697 109.31640625 151.59765625 C105.81983059 146.77182106 102.40638756 141.88973847 99 137 C94.03482204 129.87338793 89.00770378 122.79759808 83.87695312 115.7890625 C78.41934601 108.29678893 73.25979266 100.65060751 68 93 C67.67 122.7 67.34 152.4 67 183 C44.89 183 22.78 183 0 183 C0 122.61 0 62.22 0 0 Z " fill="#00BE18" transform="translate(157,163)"/>
</svg>
